HIERARCHY
ROOT joint_0
{
	OFFSET 0.000000 0.000000 0.000000
	CHANNELS 6 Xposition Yposition Zposition Zrotation Yrotation Xrotation 
	JOINT joint_1
	{
		OFFSET 6.579712 -2.778931 100.531982
		CHANNELS 3 Zrotation Yrotation Xrotation
		JOINT joint_2
		{
			OFFSET -3.313232 -1.302856 91.974976
			CHANNELS 3 Zrotation Yrotation Xrotation
			JOINT joint_3
			{
				OFFSET -3.421509 -1.641846 91.864014
				CHANNELS 3 Zrotation Yrotation Xrotation
				JOINT joint_4
				{
					OFFSET 7.697388 -4.642578 123.278931
					CHANNELS 3 Zrotation Yrotation Xrotation
					JOINT joint_5
					{
						OFFSET 24.842529 -5.941528 79.695068
						CHANNELS 3 Zrotation Yrotation Xrotation
						End Site
						{
							OFFSET 0.000000 0.000000 0.000000
						}
					}
				}
				JOINT joint_6
				{
					OFFSET -0.159668 -29.112976 68.364014
					CHANNELS 3 Zrotation Yrotation Xrotation
					JOINT joint_7
					{
						OFFSET -18.356079 -115.987061 -20.069092
						CHANNELS 3 Zrotation Yrotation Xrotation
						JOINT joint_8
						{
							OFFSET 31.719482 -11.733276 -267.170898
							CHANNELS 3 Zrotation Yrotation Xrotation
							JOINT joint_9
							{
								OFFSET 29.329956 -5.879517 -234.654053
								CHANNELS 3 Zrotation Yrotation Xrotation
								End Site
								{
									OFFSET 0.000000 0.000000 0.000000
								}
							}
						}
					}
				}
				JOINT joint_10
				{
					OFFSET 8.802979 23.897949 69.798950
					CHANNELS 3 Zrotation Yrotation Xrotation
					JOINT joint_11
					{
						OFFSET 21.159058 115.524292 -19.981934
						CHANNELS 3 Zrotation Yrotation Xrotation
						JOINT joint_12
						{
							OFFSET 18.809204 5.403442 -268.593018
							CHANNELS 3 Zrotation Yrotation Xrotation
							JOINT joint_13
							{
								OFFSET 20.807861 0.421265 -235.639038
								CHANNELS 3 Zrotation Yrotation Xrotation
								End Site
								{
									OFFSET 0.000000 0.000000 0.000000
								}
							}
						}
					}
				}
			}
		}
	}
	JOINT joint_14
	{
		OFFSET -9.713379 -79.513916 -99.348022
		CHANNELS 3 Zrotation Yrotation Xrotation
		JOINT joint_15
		{
			OFFSET -40.607788 -6.518372 -502.938019
			CHANNELS 3 Zrotation Yrotation Xrotation
			JOINT joint_16
			{
				OFFSET -19.807617 -7.437378 -399.590012
				CHANNELS 3 Zrotation Yrotation Xrotation
				JOINT joint_17
				{
					OFFSET 171.701660 -44.751282 -77.782000
					CHANNELS 3 Zrotation Yrotation Xrotation
					End Site
					{
						OFFSET 0.000000 0.000000 0.000000
					}
				}
			}
		}
	}
	JOINT joint_18
	{
		OFFSET 17.854858 79.618652 -98.128052
		CHANNELS 3 Zrotation Yrotation Xrotation
		JOINT joint_19
		{
			OFFSET -24.848877 16.861816 -503.722992
			CHANNELS 3 Zrotation Yrotation Xrotation
			JOINT joint_20
			{
				OFFSET -30.162476 14.470093 -398.750008
				CHANNELS 3 Zrotation Yrotation Xrotation
				JOINT joint_21
				{
					OFFSET 176.096680 -10.987549 -80.021000
					CHANNELS 3 Zrotation Yrotation Xrotation
					End Site
					{
						OFFSET 0.000000 0.000000 0.000000
					}
				}
			}
		}
	}
}
MOTION
Frames: 6
Frame Time: 0.016667
-1723.623169 849.535217 1096.910034 19.290680 -0.348185 -0.383935 0.025987 -0.377692 -0.817812 0.072807 0.047897 0.172639 0.059716 -0.093519 -0.125640 0.078640 1.480211 0.045399 0.000000 0.000000 0.000000 -0.110040 3.335775 0.611930 0.063987 3.068812 2.155633 -0.065259 -3.916989 -1.528683 0.000000 0.000000 0.000000 1.298354 0.889329 1.625690 -0.211108 1.413842 -2.634206 0.060352 -1.666235 1.652630 0.000000 0.000000 0.000000 0.483048 -3.242261 0.150739 0.402233 8.528818 0.760223 1.245454 -5.497622 -0.871372 0.000000 0.000000 0.000000 -2.097476 -2.056737 -0.324132 -1.875114 5.840999 0.852054 -1.979528 -4.239300 -1.161509 0.000000 0.000000 0.000000 
-1723.806519 849.612488 1096.910034 19.268327 -0.369723 -0.394219 0.037146 -0.341072 -0.802265 0.082127 0.043793 0.170762 0.069327 -0.087296 -0.123774 0.078877 1.486478 0.045529 0.000000 0.000000 0.000000 -0.122143 3.337796 0.615285 0.062395 3.071528 2.142945 -0.065562 -3.910218 -1.530213 0.000000 0.000000 0.000000 1.297876 0.864343 1.617940 -0.209836 1.384796 -2.618295 0.058636 -1.680744 1.640464 0.000000 0.000000 0.000000 0.487938 -3.231317 0.157478 0.407610 8.529484 0.754211 1.249485 -5.481491 -0.865351 0.000000 0.000000 0.000000 -2.088568 -2.080882 -0.338217 -1.863956 5.931536 0.880781 -1.966399 -4.268228 -1.157366 0.000000 0.000000 0.000000 
-1723.978271 849.686340 1096.910034 19.243937 -0.396521 -0.405956 0.048550 -0.305118 -0.787519 0.091811 0.038712 0.169940 0.079255 -0.081011 -0.122593 0.079989 1.497046 0.043624 0.000000 0.000000 0.000000 -0.136966 3.342123 0.616668 0.059478 3.077396 2.121365 -0.065600 -3.911974 -1.530336 0.000000 0.000000 0.000000 1.294824 0.838959 1.609236 -0.208337 1.356078 -2.604835 0.057980 -1.686243 1.635709 0.000000 0.000000 0.000000 0.492222 -3.215041 0.166596 0.412367 8.531335 0.748618 1.253061 -5.465519 -0.859582 0.000000 0.000000 0.000000 -2.077839 -2.094165 -0.350465 -1.851657 6.012785 0.908668 -1.952087 -4.293846 -1.152489 0.000000 0.000000 0.000000 
-1724.140747 849.748596 1096.911011 19.223319 -0.423462 -0.417602 0.055686 -0.275183 -0.776457 0.097569 0.035455 0.168631 0.085216 -0.076810 -0.121392 0.081327 1.510163 0.041562 0.000000 0.000000 0.000000 -0.147704 3.344503 0.615842 0.056822 3.081719 2.099172 -0.065947 -3.906914 -1.531874 0.000000 0.000000 0.000000 1.294603 0.816740 1.601430 -0.206530 1.329780 -2.588886 0.057306 -1.688138 1.627401 0.000000 0.000000 0.000000 0.495312 -3.193524 0.175919 0.415711 8.523475 0.744944 1.254156 -5.446629 -0.854161 0.000000 0.000000 0.000000 -2.067005 -2.101077 -0.359888 -1.839684 6.080061 0.931794 -1.938373 -4.314002 -1.147545 0.000000 0.000000 0.000000 
-1724.300659 849.790527 1096.916016 19.208679 -0.448750 -0.428050 0.057902 -0.251736 -0.772587 0.098887 0.031715 0.167575 0.086741 -0.072588 -0.120094 0.081936 1.524268 0.042169 0.000000 0.000000 0.000000 -0.156835 3.342156 0.613163 0.054904 3.081056 2.077586 -0.066844 -3.888483 -1.535938 0.000000 0.000000 0.000000 1.291940 0.797651 1.595080 -0.204063 1.305896 -2.564990 0.056066 -1.687709 1.608619 0.000000 0.000000 0.000000 0.496846 -3.168990 0.185194 0.417451 8.505626 0.741811 1.252473 -5.423989 -0.849006 0.000000 0.000000 0.000000 -2.056979 -2.105849 -0.367194 -1.828679 6.136043 0.949788 -1.925890 -4.327695 -1.142760 0.000000 0.000000 0.000000 
-1724.451050 849.819946 1096.922974 19.197899 -0.473440 -0.438354 0.055671 -0.235860 -0.773160 0.096217 0.030417 0.167276 0.084146 -0.070355 -0.119911 0.082410 1.541904 0.043946 0.000000 0.000000 0.000000 -0.160660 3.337742 0.609526 0.053135 3.079262 2.054747 -0.068093 -3.863399 -1.541693 0.000000 0.000000 0.000000 1.291771 0.782131 1.589724 -0.201269 1.284696 -2.537501 0.054675 -1.684686 1.585282 0.000000 0.000000 0.000000 0.497311 -3.140304 0.194815 0.417990 8.478627 0.740181 1.248580 -5.398583 -0.844116 0.000000 0.000000 0.000000 -2.047125 -2.105162 -0.371640 -1.818230 6.178277 0.963047 -1.914261 -4.335471 -1.137996 0.000000 0.000000 0.000000 
